<svg width="24" height="24" viewBox="0 0 24 24" fill="none" xmlns="http://www.w3.org/2000/svg">
<path d="M12 16C15.1935 16 18.034 16.6488 20.0391 17.6514C22.1036 18.6837 23 19.9251 23 21V23H1V21C1 19.9251 1.89638 18.6837 3.96094 17.6514C5.96598 16.6488 8.80646 16 12 16ZM12 1C13.3261 1 14.5975 1.52716 15.5352 2.46484C16.4728 3.40253 17 4.67392 17 6C17 7.32608 16.4728 8.59747 15.5352 9.53516C14.5975 10.4728 13.3261 11 12 11C10.6739 11 9.40253 10.4728 8.46484 9.53516C7.52716 8.59747 7 7.32608 7 6C7 4.67392 7.52716 3.40253 8.46484 2.46484C9.40253 1.52716 10.6739 1 12 1Z" stroke="#E5E5E5" stroke-width="2"/>
</svg>
