<svg width="51" height="51" viewBox="0 0 51 51" fill="none" xmlns="http://www.w3.org/2000/svg">
<path fill-rule="evenodd" clip-rule="evenodd" d="M0 25.5C0 13.4793 0 7.46895 3.7332 3.7332C7.4715 0 13.4793 0 25.5 0C37.5207 0 43.531 0 47.2642 3.7332C51 7.4715 51 13.4793 51 25.5C51 37.5207 51 43.531 47.2642 47.2642C43.5336 51 37.5207 51 25.5 51C13.4793 51 7.46895 51 3.7332 47.2642C0 43.5336 0 37.5207 0 25.5ZM38.25 28.6875C38.6392 28.6876 39.0192 28.8065 39.3391 29.0283C39.659 29.2501 39.9036 29.5642 40.0402 29.9286C40.1768 30.2931 40.199 30.6906 40.1038 31.068C40.0085 31.4454 39.8004 31.7848 39.5071 32.0407L30.7428 39.6908C30.3607 40.0245 29.8616 40.1928 29.3555 40.1586C28.8493 40.1244 28.3774 39.8905 28.0436 39.5084C27.7099 39.1263 27.5416 38.6273 27.5758 38.1211C27.61 37.6149 27.8438 37.143 28.226 36.8092L33.15 32.5125H12.75C12.2428 32.5125 11.7563 32.311 11.3977 31.9523C11.039 31.5937 10.8375 31.1072 10.8375 30.6C10.8375 30.0928 11.039 29.6063 11.3977 29.2477C11.7563 28.889 12.2428 28.6875 12.75 28.6875H38.25ZM22.9577 11.4928C23.291 11.875 23.4589 12.3739 23.4244 12.8798C23.39 13.3857 23.1561 13.8573 22.774 14.1907L17.85 18.4875H38.25C38.7572 18.4875 39.2437 18.689 39.6023 19.0477C39.961 19.4063 40.1625 19.8928 40.1625 20.4C40.1625 20.9072 39.961 21.3937 39.6023 21.7523C39.2437 22.111 38.7572 22.3125 38.25 22.3125H12.75C12.3608 22.3124 11.9808 22.1935 11.6609 21.9717C11.341 21.7499 11.0964 21.4358 10.9598 21.0714C10.8232 20.7069 10.801 20.3094 10.8962 19.932C10.9915 19.5546 11.1996 19.2152 11.4928 18.9593L20.2572 11.3092C20.4465 11.1438 20.6665 11.0173 20.9047 10.937C21.143 10.8567 21.3947 10.8241 21.6455 10.8412C21.8963 10.8582 22.1413 10.9246 22.3664 11.0364C22.5916 11.1482 22.7925 11.3033 22.9577 11.4928Z" fill="#E0A500"/>
</svg>
