<svg width="51" height="51" viewBox="0 0 51 51" fill="none" xmlns="http://www.w3.org/2000/svg">
<path fill-rule="evenodd" clip-rule="evenodd" d="M25.3648 0H25.6352C31.1124 0 35.4035 1.41388e-07 38.7529 0.450698C42.1782 0.910884 44.8824 1.87395 47.0054 3.9946C49.1284 6.11763 50.0891 8.82181 50.5493 12.2495C51 15.5965 51 19.8876 51 25.3648V25.6352C51 31.1124 51 35.4035 50.5493 38.7529C50.0891 42.1782 49.126 44.8824 47.0054 47.0054C44.8824 49.1284 42.1782 50.0891 38.7505 50.5493C35.4035 51 31.1124 51 25.6352 51H25.3648C19.8876 51 15.5965 51 12.2471 50.5493C8.82181 50.0891 6.11763 49.126 3.9946 47.0054C1.87158 44.8824 0.910884 42.1782 0.450698 38.7505C1.41388e-07 35.4035 0 31.1124 0 25.6352V25.3648C0 19.8876 1.41388e-07 15.5965 0.450698 12.2471C0.910884 8.82181 1.87395 6.11763 3.9946 3.9946C6.11763 1.87158 8.82181 0.910884 12.2495 0.450698C15.5965 1.41388e-07 19.8876 0 25.3648 0ZM12.7215 3.97563C9.69 4.38363 7.86112 5.16167 6.51139 6.51139C5.1593 7.86349 4.38363 9.69 3.97563 12.7239C3.56288 15.8076 3.55814 19.8592 3.55814 25.5C3.55814 31.1408 3.56288 35.1924 3.97563 38.2761C4.38363 41.31 5.16167 43.1389 6.51139 44.491C7.86349 45.8407 9.69 46.6164 12.7239 47.0244C15.8076 47.4371 19.8592 47.4419 25.5 47.4419C31.1408 47.4419 35.1924 47.4371 38.2761 47.0244C41.31 46.6164 43.1389 45.8383 44.491 44.4886C45.8407 43.1365 46.6164 41.31 47.0244 38.2761C47.4371 35.1924 47.4419 31.1408 47.4419 25.5C47.4419 19.8592 47.4371 15.8076 47.0244 12.7239C46.6164 9.69 45.8383 7.86112 44.4886 6.50902C43.1365 5.1593 41.31 4.38363 38.2761 3.97563C35.1924 3.56288 31.1408 3.55814 25.5 3.55814C19.8592 3.55814 15.8053 3.56288 12.7215 3.97563ZM23.1374 12.4677C23.2916 12.6439 23.4096 12.8487 23.4845 13.0705C23.5595 13.2924 23.5899 13.5268 23.574 13.7604C23.5581 13.994 23.4963 14.2221 23.3921 14.4318C23.2878 14.6415 23.1433 14.8285 22.9666 14.9821L18.3837 18.9767H37.3605C37.8323 18.9767 38.2848 19.1642 38.6185 19.4978C38.9521 19.8315 39.1395 20.284 39.1395 20.7558C39.1395 21.2277 38.9521 21.6802 38.6185 22.0138C38.2848 22.3474 37.8323 22.5349 37.3605 22.5349H13.6395C13.2774 22.5348 12.924 22.4242 12.6264 22.2179C12.3289 22.0116 12.1013 21.7194 11.9742 21.3803C11.8471 21.0413 11.8265 20.6715 11.9151 20.3205C12.0037 19.9694 12.1973 19.6537 12.4701 19.4156L20.623 12.2993C20.7991 12.1454 21.0037 12.0277 21.2253 11.953C21.4469 11.8783 21.6811 11.848 21.9144 11.8639C22.1477 11.8798 22.3756 11.9415 22.5851 12.0455C22.7945 12.1495 22.9814 12.2938 23.135 12.4701M32.6163 32.0233H13.6395C13.1677 32.0233 12.7152 31.8358 12.3815 31.5022C12.0479 31.1685 11.8605 30.716 11.8605 30.2442C11.8605 29.7723 12.0479 29.3198 12.3815 28.9862C12.7152 28.6526 13.1677 28.4651 13.6395 28.4651H37.3605C37.7226 28.4652 38.076 28.5758 38.3736 28.7821C38.6711 28.9884 38.8987 29.2806 39.0258 29.6197C39.1529 29.9587 39.1735 30.3285 39.0849 30.6795C38.9963 31.0306 38.8027 31.3463 38.5299 31.5844L30.377 38.7007C30.0216 39.0112 29.5573 39.1677 29.0865 39.1359C28.6156 39.1041 28.1766 38.8865 27.8662 38.5311C27.5557 38.1756 27.3991 37.7114 27.4309 37.2405C27.4628 36.7697 27.6803 36.3307 28.0358 36.0202L32.6163 32.0233Z" fill="#E5E5E5"/>
</svg>
